<mxfile host="app.diagrams.net" modified="2024-04-19T13:27:50.079Z" agent="5.0 (X11; Linux x86_64) AppleWebKit/537.36 (KHTML, like Gecko) Chrome/123.0.0.0 Safari/537.36" etag="sbKVkF_zA9rIl10irQyf" version="20.8.16" type="github">
  <diagram name="第 1 页" id="4lgCkZvcoOSd60dPE7em">
    <mxGraphModel dx="1050" dy="534" grid="1" gridSize="10" guides="1" tooltips="1" connect="1" arrows="1" fold="1" page="1" pageScale="1" pageWidth="827" pageHeight="1169" math="0" shadow="0">
      <root>
        <mxCell id="0" />
        <mxCell id="1" parent="0" />
        <mxCell id="72V9RUp_qAfd02G_x0Y3-1" value="" style="rounded=0;whiteSpace=wrap;html=1;" vertex="1" parent="1">
          <mxGeometry x="294" y="70" width="156" height="510" as="geometry" />
        </mxCell>
        <mxCell id="72V9RUp_qAfd02G_x0Y3-20" style="rounded=0;orthogonalLoop=1;jettySize=auto;html=1;exitX=1;exitY=0.3333333333333333;exitDx=0;exitDy=0;exitPerimeter=0;entryX=0;entryY=0.5;entryDx=0;entryDy=0;entryPerimeter=0;" edge="1" parent="1" source="72V9RUp_qAfd02G_x0Y3-2" target="72V9RUp_qAfd02G_x0Y3-6">
          <mxGeometry relative="1" as="geometry" />
        </mxCell>
        <mxCell id="72V9RUp_qAfd02G_x0Y3-21" style="rounded=0;orthogonalLoop=1;jettySize=auto;html=1;exitX=1;exitY=0.3333333333333333;exitDx=0;exitDy=0;exitPerimeter=0;" edge="1" parent="1" source="72V9RUp_qAfd02G_x0Y3-2" target="72V9RUp_qAfd02G_x0Y3-7">
          <mxGeometry relative="1" as="geometry" />
        </mxCell>
        <mxCell id="72V9RUp_qAfd02G_x0Y3-22" style="rounded=0;orthogonalLoop=1;jettySize=auto;html=1;exitX=1;exitY=0.3333333333333333;exitDx=0;exitDy=0;exitPerimeter=0;entryX=0;entryY=0.5;entryDx=0;entryDy=0;entryPerimeter=0;" edge="1" parent="1" source="72V9RUp_qAfd02G_x0Y3-2" target="72V9RUp_qAfd02G_x0Y3-8">
          <mxGeometry relative="1" as="geometry" />
        </mxCell>
        <mxCell id="72V9RUp_qAfd02G_x0Y3-2" value="用户" style="shape=umlActor;verticalLabelPosition=bottom;verticalAlign=top;html=1;fillColor=#dae8fc;strokeColor=#6c8ebf;" vertex="1" parent="1">
          <mxGeometry x="160" y="140" width="30" height="60" as="geometry" />
        </mxCell>
        <mxCell id="72V9RUp_qAfd02G_x0Y3-16" style="rounded=0;orthogonalLoop=1;jettySize=auto;html=1;exitX=0;exitY=0.3333333333333333;exitDx=0;exitDy=0;exitPerimeter=0;" edge="1" parent="1" source="72V9RUp_qAfd02G_x0Y3-3" target="72V9RUp_qAfd02G_x0Y3-11">
          <mxGeometry relative="1" as="geometry" />
        </mxCell>
        <mxCell id="72V9RUp_qAfd02G_x0Y3-17" style="rounded=0;orthogonalLoop=1;jettySize=auto;html=1;exitX=0;exitY=0.3333333333333333;exitDx=0;exitDy=0;exitPerimeter=0;entryX=1;entryY=0.5;entryDx=0;entryDy=0;entryPerimeter=0;" edge="1" parent="1" source="72V9RUp_qAfd02G_x0Y3-3" target="72V9RUp_qAfd02G_x0Y3-12">
          <mxGeometry relative="1" as="geometry" />
        </mxCell>
        <mxCell id="72V9RUp_qAfd02G_x0Y3-18" style="rounded=0;orthogonalLoop=1;jettySize=auto;html=1;exitX=0;exitY=0.3333333333333333;exitDx=0;exitDy=0;exitPerimeter=0;entryX=1;entryY=0.5;entryDx=0;entryDy=0;entryPerimeter=0;" edge="1" parent="1" source="72V9RUp_qAfd02G_x0Y3-3" target="72V9RUp_qAfd02G_x0Y3-10">
          <mxGeometry relative="1" as="geometry" />
        </mxCell>
        <mxCell id="72V9RUp_qAfd02G_x0Y3-19" style="rounded=0;orthogonalLoop=1;jettySize=auto;html=1;exitX=0;exitY=0.3333333333333333;exitDx=0;exitDy=0;exitPerimeter=0;entryX=1;entryY=0.5;entryDx=0;entryDy=0;entryPerimeter=0;" edge="1" parent="1" source="72V9RUp_qAfd02G_x0Y3-3" target="72V9RUp_qAfd02G_x0Y3-9">
          <mxGeometry relative="1" as="geometry" />
        </mxCell>
        <mxCell id="72V9RUp_qAfd02G_x0Y3-3" value="管理员" style="shape=umlActor;verticalLabelPosition=bottom;verticalAlign=top;html=1;fillColor=#dae8fc;strokeColor=#6c8ebf;" vertex="1" parent="1">
          <mxGeometry x="540" y="400" width="30" height="60" as="geometry" />
        </mxCell>
        <mxCell id="72V9RUp_qAfd02G_x0Y3-6" value="打卡" style="strokeWidth=2;html=1;shape=mxgraph.flowchart.start_1;whiteSpace=wrap;fillColor=#dae8fc;strokeColor=#6c8ebf;" vertex="1" parent="1">
          <mxGeometry x="322" y="80" width="100" height="60" as="geometry" />
        </mxCell>
        <mxCell id="72V9RUp_qAfd02G_x0Y3-7" value="设备报修" style="strokeWidth=2;html=1;shape=mxgraph.flowchart.start_1;whiteSpace=wrap;fillColor=#dae8fc;strokeColor=#6c8ebf;" vertex="1" parent="1">
          <mxGeometry x="322" y="150" width="100" height="60" as="geometry" />
        </mxCell>
        <mxCell id="72V9RUp_qAfd02G_x0Y3-8" value="信息录入" style="strokeWidth=2;html=1;shape=mxgraph.flowchart.start_1;whiteSpace=wrap;fillColor=#dae8fc;strokeColor=#6c8ebf;" vertex="1" parent="1">
          <mxGeometry x="322" y="220" width="100" height="60" as="geometry" />
        </mxCell>
        <mxCell id="72V9RUp_qAfd02G_x0Y3-9" value="员工管理" style="strokeWidth=2;html=1;shape=mxgraph.flowchart.start_1;whiteSpace=wrap;fillColor=#dae8fc;strokeColor=#6c8ebf;" vertex="1" parent="1">
          <mxGeometry x="322" y="290" width="100" height="60" as="geometry" />
        </mxCell>
        <mxCell id="72V9RUp_qAfd02G_x0Y3-10" value="信息预警" style="strokeWidth=2;html=1;shape=mxgraph.flowchart.start_1;whiteSpace=wrap;fillColor=#dae8fc;strokeColor=#6c8ebf;" vertex="1" parent="1">
          <mxGeometry x="322" y="360" width="100" height="60" as="geometry" />
        </mxCell>
        <mxCell id="72V9RUp_qAfd02G_x0Y3-11" value="数据统计" style="strokeWidth=2;html=1;shape=mxgraph.flowchart.start_1;whiteSpace=wrap;fillColor=#dae8fc;strokeColor=#6c8ebf;" vertex="1" parent="1">
          <mxGeometry x="322" y="430" width="100" height="60" as="geometry" />
        </mxCell>
        <mxCell id="72V9RUp_qAfd02G_x0Y3-12" value="权限控制" style="strokeWidth=2;html=1;shape=mxgraph.flowchart.start_1;whiteSpace=wrap;fillColor=#dae8fc;strokeColor=#6c8ebf;" vertex="1" parent="1">
          <mxGeometry x="322" y="500" width="100" height="60" as="geometry" />
        </mxCell>
      </root>
    </mxGraphModel>
  </diagram>
</mxfile>
